<svg xmlns="http://www.w3.org/2000/svg" viewBox="0 0 32.2345 16.5054"><g id="Layer_2" data-name="Layer 2"><g id="Layer_2-2" data-name="Layer 2"><path d="M14.1948,11.2892a33.5772,33.5772,0,0,0,4.6287,4.5258c.34.1523,2.8458,1.4743,5.0744,0a58.1738,58.1738,0,0,0,7.3045-6.7986A9.82,9.82,0,0,0,32.155,7S33.179,1.149,27.8752.146A5.8839,5.8839,0,0,0,21.6007,3.06,17.8042,17.8042,0,0,0,18.0692.42,4.6354,4.6354,0,0,0,14.6405.3517C12.7547.7974,10.8347,3.06,10.8347,3.06S8.9812.74,6.96.3174,5.7259-.1283,3.6344.386s-3.9086,3.5315-3.6,6a4.2388,4.2388,0,0,0,.9258,2.4c.9548,1.1763,4.69,5.3578,6.96,6.8574a6.3309,6.3309,0,0,0,4.7316.6171,4.4461,4.4461,0,0,0,2.4908-1.7474s.23-.2881-.0431-1.1818Z"/></g></g></svg>